<svg width="24" height="24" viewBox="0 0 24 24" fill="none" xmlns="http://www.w3.org/2000/svg">
<path d="M13.414 20.9L17.657 16.657C18.7758 15.5382 19.5377 14.1127 19.8463 12.5609C19.949 12.0444 20 11.5216 20 11.0001L20 5.00006C20 4.44778 19.5523 4.00006 19 4.00006H18C17.4477 4.00006 17 4.44778 17 5.00006V6.00006C17 6.55235 16.5523 7.00006 16 7.00006H15C14.4477 7.00006 14 6.55235 14 6.00006V5.00006C14 4.44778 13.5523 4.00006 13 4.00006H11C10.4477 4.00006 10 4.44778 10 5.00006V6.00006C10 6.55235 9.55228 7.00006 9 7.00006H8C7.44772 7.00006 7 6.55235 7 6.00006V5.00006C7 4.44778 6.55228 4.00006 6 4.00006H5C4.44772 4.00006 4 4.44778 4 5.00006V11.0008C4.00003 11.5221 4.05101 12.0446 4.15369 12.5609C4.46234 14.1127 5.22422 15.5382 6.343 16.657L10.587 20.9C10.962 21.2746 11.4704 21.4851 12.0005 21.4851C12.5306 21.4851 13.039 21.2746 13.414 20.9Z" stroke="#5F797A" stroke-width="2" stroke-linecap="round" stroke-linejoin="round"/>
<path d="M11.9994 10L13.4644 11.638C13.7258 11.919 13.9008 12.2694 13.9686 12.6472C14.0363 13.0249 13.994 13.4143 13.8465 13.7686C13.699 14.123 13.4527 14.4274 13.1369 14.6456C12.8211 14.8638 12.4493 14.9865 12.0656 14.9991C11.682 15.0117 11.3029 14.9136 10.9735 14.7166C10.6441 14.5196 10.3783 14.232 10.2079 13.8881C10.0375 13.5442 9.96967 13.1585 10.0125 12.7771C10.0553 12.3956 10.207 12.0346 10.4494 11.737L11.9994 10Z" stroke="#5F797A" stroke-width="2" stroke-linecap="round" stroke-linejoin="round"/>
</svg>
